<?xml version="1.0" standalone="no"?>
<!DOCTYPE svg PUBLIC "-//W3C//DTD SVG 20010904//EN"
 "http://www.w3.org/TR/2001/REC-SVG-20010904/DTD/svg10.dtd">
<svg version="1.0" xmlns="http://www.w3.org/2000/svg"
 width="500.000000pt" height="500.000000pt" viewBox="0 0 500.000000 500.000000"
 preserveAspectRatio="xMidYMid meet">
<metadata>
Created by potrace 1.14, written by Peter Selinger 2001-2017
</metadata>
<g transform="translate(0.000000,500.000000) scale(0.100000,-0.100000)"
fill="#000000" stroke="none">
<path d="M2518 4680 c-149 -26 -200 -221 -83 -317 38 -32 39 -36 36 -233 l-1
-46 -177 1 c-211 1 -255 -5 -339 -44 -121 -57 -229 -200 -250 -331 -40 -252
101 -485 330 -546 63 -17 1003 -20 1075 -3 209 48 353 244 345 474 -6 203
-118 361 -304 428 -49 18 -82 20 -285 21 l-230 1 -3 125 -2 125 30 20 c41 27
70 90 70 150 0 112 -99 194 -212 175z m56 -185 c-9 -22 -44 -19 -44 3 0 26 10
33 31 21 10 -5 16 -16 13 -24z m561 -600 c166 -85 215 -320 99 -473 -35 -45
-98 -90 -145 -102 -57 -16 -977 -14 -1028 1 -108 32 -199 154 -205 274 -6 110
39 212 120 273 76 59 82 60 615 58 l485 -1 59 -30z"/>
<path d="M2165 3796 c-45 -21 -85 -68 -99 -117 -35 -116 72 -235 193 -215 150
24 196 229 69 313 -46 31 -119 39 -163 19z m77 -161 c0 -5 -5 -11 -11 -13 -6
-2 -11 4 -11 13 0 9 5 15 11 13 6 -2 11 -8 11 -13z"/>
<path d="M2827 3796 c-72 -26 -109 -80 -110 -161 -3 -186 258 -240 330 -67 16
40 15 105 -3 142 -19 40 -66 77 -109 89 -50 14 -61 13 -108 -3z m73 -161 c0
-8 -4 -15 -9 -15 -13 0 -22 16 -14 24 11 11 23 6 23 -9z"/>
<path d="M437 3453 c12 -90 73 -170 160 -210 47 -22 52 -27 58 -66 31 -182
165 -387 330 -503 78 -56 212 -114 295 -129 19 -3 44 -8 55 -10 11 -2 34 -4
51 -4 l31 -1 0 -463 c0 -442 1 -464 20 -508 25 -56 64 -95 123 -122 39 -18 66
-20 211 -21 l166 -1 -1 -194 -1 -193 -61 -22 c-169 -62 -270 -201 -281 -391
l-5 -90 408 2 c225 1 417 2 428 2 17 1 18 8 13 89 -3 53 -13 108 -26 142 -43
114 -147 213 -261 248 l-55 17 1 185 c1 102 2 190 3 195 1 12 925 14 937 3 5
-6 9 -299 5 -375 -1 -7 -9 -13 -18 -13 -32 0 -140 -57 -184 -97 -89 -80 -134
-183 -142 -320 -4 -73 -4 -73 22 -74 37 0 781 -1 807 0 20 1 21 6 19 74 -4
131 -46 229 -133 312 -47 45 -130 91 -179 101 l-33 6 0 197 0 196 163 1 c103
0 176 5 200 13 54 18 106 67 132 123 22 46 22 56 23 510 0 255 1 475 1 491 1
25 4 27 34 22 238 -40 440 -213 517 -441 30 -89 27 -106 -21 -129 -72 -34
-139 -136 -139 -212 0 -22 3 -23 80 -23 75 0 80 1 80 21 0 12 15 36 34 55 28
28 42 34 76 34 34 0 48 -6 76 -34 19 -19 34 -43 34 -55 0 -20 5 -21 80 -21 92
0 92 0 63 90 -19 58 -83 130 -141 158 -32 16 -37 23 -48 81 -48 237 -208 443
-429 555 -72 36 -194 74 -254 78 -38 3 -38 4 -45 74 -3 28 -10 63 -15 77 -16
42 -73 99 -121 121 -44 20 -61 20 -995 21 -522 1 -967 -3 -989 -7 -107 -24
-178 -122 -178 -248 0 -55 -4 -73 -15 -77 -25 -10 -161 24 -232 57 -121 57
-243 176 -305 298 -22 42 -56 149 -56 173 0 10 12 25 28 33 65 34 131 136 132
204 l0 32 -80 0 c-76 0 -80 -1 -80 -22 0 -27 -26 -61 -57 -77 -56 -29 -133 3
-153 63 l-12 36 -78 0 -78 0 5 -37z m3078 -596 c45 -24 44 -12 44 -637 0 -638
2 -619 -50 -639 -15 -5 -396 -9 -949 -9 -1007 0 -958 -3 -977 56 -5 15 -9 288
-8 608 0 623 -1 605 50 624 32 12 1866 10 1890 -3z m-1380 -2014 c50 -26 91
-67 116 -114 13 -27 15 -38 6 -41 -10 -4 -468 -3 -489 1 -30 5 73 130 128 156
45 21 128 33 169 24 17 -3 48 -15 70 -26z m1090 8 c22 -10 55 -31 72 -47 32
-30 73 -91 73 -109 0 -11 -484 -14 -495 -3 -22 21 73 128 140 159 54 24 157
24 210 0z"/>
<path d="M2709 2687 c-1 -1 -2 -37 -3 -79 l-2 -78 312 0 313 0 0 79 0 79 -309
0 c-171 0 -311 -1 -311 -1z"/>
<path d="M1930 2529 c-113 -8 -177 -50 -214 -143 -20 -49 -22 -71 -21 -204 2
-143 3 -150 30 -201 56 -102 111 -124 310 -123 177 0 214 11 275 79 52 60 60
92 60 257 0 158 -9 200 -57 255 -66 77 -160 97 -383 80z m248 -170 c12 -8 25
-22 28 -33 10 -31 5 -255 -5 -275 -16 -30 -57 -37 -185 -36 -114 1 -120 2
-141 27 -19 23 -22 37 -23 144 -1 102 1 124 18 151 22 37 30 38 175 37 77 0
117 -5 133 -15z"/>
<path d="M2704 2350 l1 -80 311 0 312 0 0 80 0 80 -312 0 -312 0 0 -80z"/>
<path d="M2704 2090 l1 -79 310 2 310 2 2 78 2 77 -313 0 -312 0 0 -80z"/>
<path d="M2750 1910 l-46 -5 1 -75 1 -75 309 0 310 0 3 78 2 77 -37 0 c-282 4
-507 4 -543 0z"/>
</g>
</svg>
